  0
SECTION
  2
HEADER
  9
$ACADVER
  1
AC1009
  9
$FILLMODE
 70
 0
  9
$SPLFRAME
 70
 1
  9
$EXTMIN
 10
0
 20
0
 30
0.0
  9
$EXTMAX
 10
1058.33
 20
1058.33
 30
0.0
  0
ENDSEC
  0
SECTION
  2
TABLES
  0
TABLE
  2
LAYER
 70
1
  0
LAYER
  2
0
 70
     0
 62
     7
  6
CONTINUOUS
  0
ENDTAB
  0
ENDSEC
  0
SECTION
  2
ENTITIES
  0
LINE
  8
0
 62
     0
 10
0.0950846
 20
38.3575
 30
0.0
 11
85.8203
 21
38.3575
 31
0.0
  0
LINE
  8
0
 62
     0
 10
85.8203
 20
38.3575
 30
0.0
 11
85.8203
 21
0.257693
 31
0.0
  0
LINE
  8
0
 62
     0
 10
85.8203
 20
0.257693
 30
0.0
 11
0.0950846
 21
0.257693
 31
0.0
  0
LINE
  8
0
 62
     0
 10
0.0950846
 20
0.257693
 30
0.0
 11
0.0950846
 21
38.3575
 31
0.0
  0
LINE
  8
0
 62
     0
 10
7.38216
 20
16.7831
 30
0.0
 11
21.3817
 21
16.7831
 31
0.0
  0
LINE
  8
0
 62
     0
 10
21.3817
 20
16.7831
 30
0.0
 11
21.3817
 21
2.78364
 31
0.0
  0
LINE
  8
0
 62
     0
 10
21.3817
 20
2.78364
 30
0.0
 11
7.38216
 21
2.78364
 31
0.0
  0
LINE
  8
0
 62
     0
 10
7.38216
 20
2.78364
 30
0.0
 11
7.38216
 21
16.7831
 31
0.0
  0
LINE
  8
0
 62
     0
 10
26.4322
 20
16.7831
 30
0.0
 11
40.4315
 21
16.7831
 31
0.0
  0
LINE
  8
0
 62
     0
 10
40.4315
 20
16.7831
 30
0.0
 11
40.4315
 21
2.78364
 31
0.0
  0
LINE
  8
0
 62
     0
 10
40.4315
 20
2.78364
 30
0.0
 11
26.4322
 21
2.78364
 31
0.0
  0
LINE
  8
0
 62
     0
 10
26.4322
 20
2.78364
 30
0.0
 11
26.4322
 21
16.7831
 31
0.0
  0
LINE
  8
0
 62
     0
 10
45.4822
 20
16.7831
 30
0.0
 11
59.4815
 21
16.7831
 31
0.0
  0
LINE
  8
0
 62
     0
 10
59.4815
 20
16.7831
 30
0.0
 11
59.4815
 21
2.78364
 31
0.0
  0
LINE
  8
0
 62
     0
 10
59.4815
 20
2.78364
 30
0.0
 11
45.4822
 21
2.78364
 31
0.0
  0
LINE
  8
0
 62
     0
 10
45.4822
 20
2.78364
 30
0.0
 11
45.4822
 21
16.7831
 31
0.0
  0
LINE
  8
0
 62
     0
 10
73.4124
 20
35.4087
 30
0.0
 11
73.4124
 21
34.5833
 31
0.0
  0
LINE
  8
0
 62
     0
 10
73.4124
 20
34.5833
 30
0.0
 11
67.1421
 21
34.5833
 31
0.0
  0
LINE
  8
0
 62
     0
 10
67.1421
 20
34.5833
 30
0.0
 11
67.1421
 21
32.8579
 31
0.0
  0
LINE
  8
0
 62
     0
 10
67.1421
 20
32.8579
 30
0.0
 11
65.9419
 21
32.8579
 31
0.0
  0
LINE
  8
0
 62
     0
 10
65.9419
 20
32.8579
 30
0.0
 11
65.9419
 21
29.5589
 31
0.0
  0
LINE
  8
0
 62
     0
 10
65.9419
 20
29.5589
 30
0.0
 11
67.1421
 21
29.5589
 31
0.0
  0
LINE
  8
0
 62
     0
 10
67.1421
 20
29.5589
 30
0.0
 11
67.1421
 21
27.8336
 31
0.0
  0
LINE
  8
0
 62
     0
 10
67.1421
 20
27.8336
 30
0.0
 11
71.6125
 21
27.8336
 31
0.0
  0
LINE
  8
0
 62
     0
 10
71.6125
 20
27.8336
 30
0.0
 11
71.6125
 21
26.3081
 31
0.0
  0
LINE
  8
0
 62
     0
 10
71.6125
 20
26.3081
 30
0.0
 11
66.9121
 21
26.3081
 31
0.0
  0
LINE
  8
0
 62
     0
 10
66.9121
 20
26.3081
 30
0.0
 11
66.9121
 21
12.3086
 31
0.0
  0
LINE
  8
0
 62
     0
 10
66.9121
 20
12.3086
 30
0.0
 11
71.6125
 21
12.3086
 31
0.0
  0
LINE
  8
0
 62
     0
 10
71.6125
 20
12.3086
 30
0.0
 11
71.6125
 21
10.7831
 31
0.0
  0
LINE
  8
0
 62
     0
 10
71.6125
 20
10.7831
 30
0.0
 11
67.1421
 21
10.7831
 31
0.0
  0
LINE
  8
0
 62
     0
 10
67.1421
 20
10.7831
 30
0.0
 11
67.1421
 21
9.05785
 31
0.0
  0
LINE
  8
0
 62
     0
 10
67.1421
 20
9.05785
 30
0.0
 11
65.9419
 21
9.05785
 31
0.0
  0
LINE
  8
0
 62
     0
 10
65.9419
 20
9.05785
 30
0.0
 11
65.9419
 21
5.75881
 31
0.0
  0
LINE
  8
0
 62
     0
 10
65.9419
 20
5.75881
 30
0.0
 11
67.1421
 21
5.75881
 31
0.0
  0
LINE
  8
0
 62
     0
 10
67.1421
 20
5.75881
 30
0.0
 11
67.1421
 21
4.03352
 31
0.0
  0
LINE
  8
0
 62
     0
 10
67.1421
 20
4.03352
 30
0.0
 11
73.4124
 21
4.03352
 31
0.0
  0
LINE
  8
0
 62
     0
 10
73.4124
 20
4.03352
 30
0.0
 11
73.4124
 21
3.20807
 31
0.0
  0
LINE
  8
0
 62
     0
 10
73.4124
 20
3.20807
 30
0.0
 11
76.2123
 21
3.20807
 31
0.0
  0
LINE
  8
0
 62
     0
 10
76.2123
 20
3.20807
 30
0.0
 11
76.2123
 21
4.03352
 31
0.0
  0
LINE
  8
0
 62
     0
 10
76.2123
 20
4.03352
 30
0.0
 11
79.4424
 21
4.03352
 31
0.0
  0
LINE
  8
0
 62
     0
 10
79.4424
 20
4.03352
 30
0.0
 11
79.4424
 21
10.7831
 31
0.0
  0
LINE
  8
0
 62
     0
 10
79.4424
 20
10.7831
 30
0.0
 11
76.2123
 21
10.7831
 31
0.0
  0
LINE
  8
0
 62
     0
 10
76.2123
 20
10.7831
 30
0.0
 11
76.2123
 21
12.3086
 31
0.0
  0
LINE
  8
0
 62
     0
 10
76.2123
 20
12.3086
 30
0.0
 11
80.9128
 21
12.3086
 31
0.0
  0
LINE
  8
0
 62
     0
 10
80.9128
 20
12.3086
 30
0.0
 11
80.9128
 21
26.3081
 31
0.0
  0
LINE
  8
0
 62
     0
 10
80.9128
 20
26.3081
 30
0.0
 11
76.2123
 21
26.3081
 31
0.0
  0
LINE
  8
0
 62
     0
 10
76.2123
 20
26.3081
 30
0.0
 11
76.2123
 21
27.8336
 31
0.0
  0
LINE
  8
0
 62
     0
 10
76.2123
 20
27.8336
 30
0.0
 11
79.4424
 21
27.8336
 31
0.0
  0
LINE
  8
0
 62
     0
 10
79.4424
 20
27.8336
 30
0.0
 11
79.4424
 21
34.5833
 31
0.0
  0
LINE
  8
0
 62
     0
 10
79.4424
 20
34.5833
 30
0.0
 11
76.2123
 21
34.5833
 31
0.0
  0
LINE
  8
0
 62
     0
 10
76.2123
 20
34.5833
 30
0.0
 11
76.2123
 21
35.4087
 31
0.0
  0
LINE
  8
0
 62
     0
 10
76.2123
 20
35.4087
 30
0.0
 11
73.4124
 21
35.4087
 31
0.0
  0
LINE
  8
0
 62
     0
 10
2.61965
 20
35.833
 30
0.0
 11
16.6192
 21
35.833
 31
0.0
  0
LINE
  8
0
 62
     0
 10
16.6192
 20
35.833
 30
0.0
 11
16.6192
 21
21.8336
 31
0.0
  0
LINE
  8
0
 62
     0
 10
16.6192
 20
21.8336
 30
0.0
 11
2.61965
 21
21.8336
 31
0.0
  0
LINE
  8
0
 62
     0
 10
2.61965
 20
21.8336
 30
0.0
 11
2.61965
 21
35.833
 31
0.0
  0
LINE
  8
0
 62
     0
 10
21.6697
 20
35.833
 30
0.0
 11
35.669
 21
35.833
 31
0.0
  0
LINE
  8
0
 62
     0
 10
35.669
 20
35.833
 30
0.0
 11
35.669
 21
21.8336
 31
0.0
  0
LINE
  8
0
 62
     0
 10
35.669
 20
21.8336
 30
0.0
 11
21.6697
 21
21.8336
 31
0.0
  0
LINE
  8
0
 62
     0
 10
21.6697
 20
21.8336
 30
0.0
 11
21.6697
 21
35.833
 31
0.0
  0
LINE
  8
0
 62
     0
 10
40.7197
 20
35.833
 30
0.0
 11
54.719
 21
35.833
 31
0.0
  0
LINE
  8
0
 62
     0
 10
54.719
 20
35.833
 30
0.0
 11
54.719
 21
21.8336
 31
0.0
  0
LINE
  8
0
 62
     0
 10
54.719
 20
21.8336
 30
0.0
 11
40.7197
 21
21.8336
 31
0.0
  0
LINE
  8
0
 62
     0
 10
40.7197
 20
21.8336
 30
0.0
 11
40.7197
 21
35.833
 31
0.0
  0
ENDSEC
  0
EOF
